<svg width="98" height="41" viewBox="0 0 98 41" fill="none" xmlns="http://www.w3.org/2000/svg">
<path d="M0.254883 22.3109C1.43742 18.8615 8.17329 17.4059 17.9929 18.6089L19.8941 11.4973C10.1725 10.2411 3.07729 11.6568 1.89475 16.1564L0.254883 22.3109Z" fill="#0095FF"/>
<path d="M35.7308 14.9062C34.5483 18.3557 27.8189 19.8046 17.9928 18.6016L16.0916 25.7133C25.8132 26.9694 32.9083 25.5537 34.0909 21.0541L35.7308 14.9062Z" fill="#0000C9"/>
<path d="M6.47461 7.40946C20.8218 8.45958 35.4761 15.6775 34.091 21.0678L35.3781 16.2558C35.7896 14.7404 35.9922 13.9561 35.9922 13.3247C35.9922 7.83483 21.8475 1.13529 8.37581 0.297852L6.47461 7.40946Z" fill="#0095FF"/>
<path d="M29.5111 29.801C15.1638 28.7576 0.5096 21.5396 1.9012 16.1494L0.614133 20.9614C0.202534 22.4768 0 23.261 0 23.8924C0 29.3824 14.1446 36.0819 27.6164 36.9193L29.5111 29.801Z" fill="#0000C9"/>
<path d="M81.8431 28.1258C80.0268 28.1524 79.0599 26.976 79.0599 24.8891C79.0599 24.7495 79.0664 24.6166 79.073 24.4837H86.2074C86.3511 23.932 86.4425 23.3338 86.4425 22.7822C86.4425 20.2366 84.9072 18.2959 81.7712 18.2959C78.5634 18.2959 75.7148 21.5127 75.7148 24.8891C75.7148 28.1258 77.7924 30.0931 81.2551 30.0931C82.7904 30.0931 84.2996 29.5681 85.358 28.7506L84.6982 27.0691C83.875 27.7204 82.8623 28.1059 81.8431 28.1258ZM81.8235 20.117C82.8819 20.117 83.4242 20.8149 83.4242 22.3502C83.4242 22.4964 83.4176 22.6493 83.398 22.8088H79.3278C79.772 21.1871 80.7194 20.117 81.8235 20.117Z" fill="#0000C9"/>
<path d="M53.5994 17.578C53.5994 14.9394 51.5741 13.0186 48.5034 13.0186L42.5646 13.0186L38.0828 29.8072H41.8329L43.4858 23.6195H46.7394C50.4634 23.6195 53.5994 21.1736 53.5994 17.578ZM45.3021 21.6522H44.015L45.7921 14.9859L47.1445 14.9859C48.8497 14.9859 49.8101 16.1623 49.8101 17.7175C49.8035 20.2099 47.8828 21.6522 45.3021 21.6522Z" fill="#0000C9"/>
<path d="M58.4864 18.6085L58.9045 17.0466C59.1136 16.2291 59.4729 14.84 59.9629 13.2316C60.479 11.5767 61.4264 10.5465 62.7004 10.5465C63.3145 10.5465 63.6935 10.8323 63.6935 11.3108C63.6673 11.8359 63.2427 12.1483 63.2427 12.9923C63.2427 13.976 64.0658 14.7403 65.1308 14.7403C66.4505 14.7403 67.5089 13.6636 67.5089 12.341C67.5089 10.3006 65.7907 8.95801 63.1708 8.95801C59.3292 8.95801 56.8073 11.4504 55.2263 17.2793L48.8105 41.0001H52.4431L57.9833 20.4429H61.7596L59.2769 29.7944H62.9094L65.8821 18.5952H58.4864V18.6085Z" fill="#0000C9"/>
<path d="M76.8713 18.6084H67.2543L66.7773 20.4561H71.4356L64.2097 29.8075H74.3952L74.8656 27.9598H69.6258L76.8713 18.6084Z" fill="#0000C9"/>
<path d="M95.9223 18.416C94.6222 18.416 93.2372 19.2734 92.1526 21.048L92.7863 18.6088H89.1538L86.1812 29.8078H89.8137L91.1596 24.7699C91.7018 22.7096 93.0216 20.6957 93.897 20.6957C94.8378 20.6957 94.485 22.4969 96.1118 22.4969C97.2878 22.4969 97.9999 21.3936 97.9999 20.3833C97.9934 19.2069 97.0787 18.416 95.9223 18.416Z" fill="#0000C9"/>
</svg>
