<svg width="129" height="61" viewBox="0 0 129 61" fill="none" xmlns="http://www.w3.org/2000/svg">
<path d="M0.335449 33.1803C1.89205 28.056 10.7587 25.8937 23.6844 27.6808L26.1871 17.1161C13.3903 15.25 4.05065 17.3531 2.49405 24.0375L0.335449 33.1803Z" fill="white"/>
<path d="M47.0335 22.1816C45.4769 27.306 36.6189 29.4585 23.6845 27.6713L21.1819 38.2361C33.9787 40.1021 43.3183 37.999 44.8749 31.3147L47.0335 22.1816Z" fill="white"/>
<path d="M8.52271 11.0442C27.4083 12.6042 46.6981 23.3269 44.8749 31.3344L46.5691 24.1859C47.1109 21.9347 47.3775 20.7697 47.3775 19.8316C47.3775 11.6761 28.7585 1.72356 11.0253 0.479492L8.52271 11.0442Z" fill="white"/>
<path d="M38.8462 44.3081C19.9606 42.758 0.6708 32.0353 2.5026 24.0278L0.8084 31.1763C0.266601 33.4275 0 34.5925 0 35.5305C0 43.6861 18.6189 53.6387 36.3521 54.8828L38.8462 44.3081Z" fill="white"/>
<path d="M107.732 41.8202C105.341 41.8597 104.068 40.1122 104.068 37.0119C104.068 36.8045 104.077 36.607 104.086 36.4096H113.477C113.666 35.5901 113.786 34.7014 113.786 33.8819C113.786 30.1004 111.765 27.2173 107.637 27.2173C103.415 27.2173 99.6653 31.9961 99.6653 37.0119C99.6653 41.8202 102.4 44.7428 106.958 44.7428C108.979 44.7428 110.966 43.9628 112.359 42.7483L111.49 40.2504C110.407 41.218 109.074 41.7906 107.732 41.8202ZM107.706 29.9226C109.099 29.9226 109.813 30.9594 109.813 33.2402C109.813 33.4574 109.805 33.6845 109.779 33.9214H104.421C105.006 31.5123 106.253 29.9226 107.706 29.9226Z" fill="white"/>
<path d="M70.5544 26.1507C70.5544 22.2309 67.8884 19.3774 63.8464 19.3774H56.029L50.1294 44.318H55.0658L57.2416 35.1257H61.5244C66.4264 35.1257 70.5544 31.4923 70.5544 26.1507ZM59.6324 32.2032H57.9382L60.2774 22.3H62.0576C64.3022 22.3 65.5664 24.0476 65.5664 26.358C65.5578 30.0606 63.0294 32.2032 59.6324 32.2032Z" fill="white"/>
<path d="M76.9871 27.6812L77.5375 25.3609C77.8127 24.1464 78.2857 22.0828 78.9307 19.6934C79.61 17.2349 80.8571 15.7045 82.5341 15.7045C83.3425 15.7045 83.8413 16.1291 83.8413 16.84C83.8069 17.62 83.2479 18.084 83.2479 19.338C83.2479 20.7993 84.3314 21.9347 85.7333 21.9347C87.4705 21.9347 88.8636 20.3352 88.8636 18.3704C88.8636 15.3392 86.6019 13.3447 83.1532 13.3447C78.0965 13.3447 74.7769 17.0473 72.6957 25.7064L64.2505 60.9452H69.0321L76.3249 30.4062H81.2957L78.0276 44.2984H82.8092L86.7222 27.6613H76.9871V27.6812Z" fill="white"/>
<path d="M101.188 27.6812H88.5286L87.9008 30.426H94.0326L84.521 44.318H97.9284L98.5476 41.5733H91.6504L101.188 27.6812Z" fill="white"/>
<path d="M126.265 27.395C124.554 27.395 122.731 28.6687 121.303 31.3049L122.137 27.6814H117.356L113.443 44.3183H118.224L119.996 36.8341C120.71 33.7733 122.447 30.7816 123.599 30.7816C124.838 30.7816 124.373 33.4574 126.515 33.4574C128.063 33.4574 129 31.8184 129 30.3176C128.991 28.57 127.787 27.395 126.265 27.395Z" fill="white"/>
</svg>
