<svg width="78" height="78" viewBox="0 0 78 78" fill="none" xmlns="http://www.w3.org/2000/svg">
<path d="M20.407 58.4334V59.0271C20.407 60.9701 20.7912 62.8861 21.5259 64.6604C22.3684 66.7046 24.404 68 26.6148 68H43.5935C45.8043 68 47.8399 66.7046 48.6824 64.6604C49.4171 62.8861 49.8013 60.9701 49.8013 59.0271V50.0609C45.6628 48.914 42.6095 45.1157 42.6095 40.609C42.6095 38.1735 43.4992 35.9472 44.9685 34.2336C42.3601 31.8588 38.8956 30.415 35.1008 30.415C27.3495 30.415 20.9799 36.4532 20.4407 44.0835" fill="#0683AD"/>
<path d="M43.8564 13.2316L46.2425 16.2878C46.5593 16.6993 47.0378 16.9084 47.5164 16.9084C47.8601 16.9084 48.2106 16.7938 48.5072 16.5644C49.2082 16.0179 49.3363 14.9992 48.7836 14.2975L45.919 10.6207C45.6156 10.2294 45.1438 10 44.645 10H26.7226C25.8329 10 25.105 10.7219 25.105 11.6192C25.105 12.5165 25.8262 13.2316 26.7226 13.2316H33.1731V19.9039H32.2227C31.1712 19.9039 30.322 20.754 30.322 21.8064V28.9443C31.8587 28.4922 33.4629 28.2561 35.1075 28.2561C36.523 28.2561 37.9182 28.4315 39.2528 28.7688V21.8064C39.2528 20.754 38.4035 19.9039 37.3521 19.9039H36.4017V13.2316H43.8564Z" fill="#0683AD"/>
<path d="M52.4098 32.959C50.0103 32.959 47.8669 34.0722 46.4649 35.806C45.3999 37.1216 44.7664 38.7947 44.7664 40.6095C44.7664 43.9153 46.8693 46.7354 49.8013 47.8013C50.6169 48.0982 51.4932 48.2601 52.4098 48.2601C56.6225 48.2601 60.0533 44.8261 60.0533 40.6095C60.0533 36.393 56.6225 32.959 52.4098 32.959Z" fill="#F4364C"/>
<path d="M55.5171 25.8075C55.5171 27.8044 57.1413 29.4303 59.1362 29.4303C61.1311 29.4303 62.7553 27.8044 62.7553 25.8075C62.7553 23.8105 61.1311 22.1846 59.1362 22.1846C57.1413 22.1846 55.5171 23.8105 55.5171 25.8075Z" fill="#F4364C"/>
<path d="M15.6686 23.8105C12.5411 23.8105 10 26.354 10 29.4844C10 32.6148 12.5411 35.1582 15.6686 35.1582C18.7961 35.1582 21.3371 32.6148 21.3371 29.4844C21.3371 26.354 18.7961 23.8105 15.6686 23.8105Z" fill="#F4364C"/>
<path d="M63.2616 49.2578C60.6464 49.2578 58.5232 51.3897 58.5232 54.0006C58.5232 56.6115 60.6531 58.7434 63.2616 58.7434C65.8701 58.7434 68 56.6183 68 54.0006C68 51.383 65.8768 49.2578 63.2616 49.2578Z" fill="#F4364C"/>
</svg>
