<svg width="78" height="78" viewBox="0 0 78 78" fill="none" xmlns="http://www.w3.org/2000/svg">
<path d="M60.2642 58.9717H18.1982V16.9057C18.1982 16.1296 17.5686 15.5 16.7925 15.5C16.0164 15.5 15.3868 16.1296 15.3868 16.9057V60.3774C15.3868 61.1534 16.0164 61.783 16.7925 61.783H60.2642C61.0403 61.783 61.6699 61.1534 61.6699 60.3774C61.6699 59.6013 61.0403 58.9717 60.2642 58.9717Z" fill="#0683AD" stroke="#0683AD"/>
<path d="M62.1406 26.3499V26.3451L62.0267 26.1628C60.3282 23.4429 57.8511 21.8545 55.0258 21.8545C49.5935 21.8545 44.4471 27.7961 44.4471 37.016C44.4471 40.9705 43.9223 43.9134 43.1693 45.9058C42.3972 47.9485 41.4628 48.8074 40.78 48.9806L40.78 48.9806C40.1472 49.1411 39.2265 48.8692 38.0222 47.7572C36.8453 46.6706 35.5508 44.9146 34.236 42.527L34.2359 42.5269C32.2659 38.9505 30.2475 36.258 28.218 34.5837C26.2719 32.9775 24.2122 32.2132 22.1236 32.463C19.9837 32.7185 18.2202 33.977 16.8082 35.5501C15.3944 37.1252 14.2755 39.078 13.4238 40.8604L62.1406 26.3499ZM62.1406 26.3499C63.8752 29.2415 64.75 33.3523 64.75 38.2007C64.75 39.2304 63.878 40.0484 62.8425 39.9846L62.841 39.9846C61.8615 39.9224 61.1611 39.0827 61.1608 38.1641C61.1567 33.7534 60.3708 30.2809 58.9785 28.0507L58.9785 28.0506C57.8699 26.2742 56.537 25.4293 55.0258 25.4293C53.491 25.4293 51.8119 26.3823 50.4742 28.241C48.9266 30.3914 48.0374 33.4979 48.0374 37.016C48.0374 40.9342 47.5356 44.4157 46.5556 47.0678C45.5045 49.9142 43.8593 51.8878 41.6661 52.4449L41.6655 52.4451C41.2856 52.5412 40.8707 52.5998 40.4254 52.5998C37.8383 52.5998 34.6252 50.6668 31.0888 44.2454L31.0888 44.2454C29.4641 41.2947 27.8851 39.134 26.4058 37.7609C24.918 36.3799 23.6299 35.8823 22.5516 36.0116L22.5513 36.0117C21.4891 36.1386 20.4176 36.8629 19.3776 38.0592C18.3485 39.2429 17.4297 40.7981 16.6616 42.3944L16.6613 42.395C16.0519 43.6587 14.2793 43.7749 13.5241 42.5757L13.524 42.5755C13.2001 42.0608 13.1591 41.4134 13.4237 40.8606L62.1406 26.3499Z" fill="#F4364C" stroke="#F4364C" stroke-width="1.5"/>
</svg>
