<svg width="78" height="78" viewBox="0 0 78 78" fill="none" xmlns="http://www.w3.org/2000/svg">
<path d="M45.9179 59.1412C45.9179 63.485 42.3818 67 38.0119 67C37.7173 67 37.4226 66.9857 37.1279 66.95C32.7869 66.4785 29.6532 62.592 30.1348 58.2839C30.3648 56.1692 31.45 54.2402 33.139 52.9328V19.0545C33.0312 16.3682 35.1371 14.1106 37.8395 14.0034C40.5418 13.9034 42.813 15.9967 42.9208 18.6758C42.9208 18.7973 42.9208 18.9259 42.9208 19.0473V52.9257C44.8326 54.426 45.9466 56.7122 45.9394 59.1341H45.9179V59.1412Z" fill="#0683AD"/>
<path d="M24.5936 43.9593H27.6482C28.4387 43.9593 29.0856 44.6023 29.0856 45.3882C29.0856 46.1741 28.4387 46.8171 27.6482 46.8171H24.5936C23.803 46.8171 23.1562 46.1741 23.1562 45.3882C23.1562 44.6023 23.803 43.9593 24.5936 43.9593Z" fill="#F4364C"/>
<path d="M22.4374 36.815H27.6482C28.4387 36.815 29.0856 37.458 29.0856 38.2439C29.0856 39.0297 28.4387 39.6727 27.6482 39.6727H22.4374C21.6468 39.6727 21 39.0297 21 38.2439C21 37.458 21.6468 36.815 22.4374 36.815Z" fill="#F4364C"/>
<path d="M24.5936 29.6707H27.6482C28.4387 29.6707 29.0856 30.3137 29.0856 31.0996C29.0856 31.8854 28.4387 32.5284 27.6482 32.5284H24.5936C23.803 32.5284 23.1562 31.8854 23.1562 31.0996C23.1562 30.3137 23.803 29.6707 24.5936 29.6707Z" fill="#F4364C"/>
<path d="M22.4374 22.5264H27.6482C28.4387 22.5264 29.0856 23.1694 29.0856 23.9552C29.0856 24.7411 28.4387 25.3841 27.6482 25.3841H22.4374C21.6468 25.3841 21 24.7411 21 23.9552C21 23.1694 21.6468 22.5264 22.4374 22.5264Z" fill="#F4364C"/>
</svg>
