<svg width="78" height="78" viewBox="0 0 78 78" fill="none" xmlns="http://www.w3.org/2000/svg">
<path d="M37.6961 13C33.785 13 30.6038 16.2716 30.6038 20.2927C30.6038 24.3138 33.7855 27.5849 37.6961 27.5849C41.6067 27.5849 44.788 24.3133 44.788 20.2927C44.788 16.2716 41.6062 13 37.6961 13Z" fill="#F4364C"/>
<path d="M37.6961 50.5264C33.785 50.5264 30.6038 53.798 30.6038 57.8191C30.6038 61.8401 33.7855 65.1112 37.6961 65.1112C41.6067 65.1112 44.788 61.8396 44.788 57.8191C44.788 53.798 41.6062 50.5264 37.6961 50.5264Z" fill="#F4364C"/>
<path d="M55.8116 31.5186C51.9005 31.5186 48.7192 34.7902 48.7192 38.8112C48.7192 42.8323 51.901 46.1034 55.8116 46.1034C59.7222 46.1034 62.9034 42.8318 62.9034 38.8112C62.9039 34.7892 59.7222 31.5186 55.8116 31.5186Z" fill="#F4364C"/>
<path d="M40.8742 39.5432C40.8742 37.74 39.4481 36.2734 37.6938 36.2734C35.9401 36.2734 34.5134 37.7398 34.5134 39.5432C34.5134 41.3469 35.94 42.8138 37.6938 42.8138C39.448 42.8133 40.8742 41.3464 40.8742 39.5432Z" fill="#0683AD"/>
<path d="M22.3608 39.5432C22.3608 37.74 20.9347 36.2734 19.1804 36.2734C17.4267 36.2734 16 37.7398 16 39.5432C16 41.3469 17.4266 42.8138 19.1804 42.8138C20.9346 42.8133 22.3608 41.3464 22.3608 39.5432Z" fill="#0683AD"/>
<path d="M55.8115 53.8164C54.0573 53.8164 52.6311 55.2828 52.6311 57.0862C52.6311 58.8899 54.0572 60.3568 55.8115 60.3568C57.5652 60.3568 58.9919 58.8899 58.9919 57.0862C58.9919 55.2829 57.5653 53.8164 55.8115 53.8164Z" fill="#0683AD"/>
<path d="M55.8115 23.5628C57.5657 23.5628 58.9919 22.0959 58.9919 20.2922C58.9919 18.489 57.5658 17.0225 55.8115 17.0225C54.0578 17.0225 52.6311 18.4889 52.6311 20.2922C52.632 22.0959 54.0587 23.5628 55.8115 23.5628Z" fill="#0683AD"/>
<path d="M19.1804 53.8164C17.4262 53.8164 16 55.2828 16 57.0862C16 58.8899 17.4261 60.3568 19.1804 60.3568C20.9341 60.3568 22.3608 58.8899 22.3608 57.0862C22.3608 55.2829 20.9342 53.8164 19.1804 53.8164Z" fill="#0683AD"/>
<path d="M19.1804 23.5628C20.9346 23.5628 22.3608 22.0959 22.3608 20.2922C22.3608 18.489 20.9347 17.0225 19.1804 17.0225C17.4267 17.0225 16 18.4889 16 20.2922C16.0009 22.0959 17.4276 23.5628 19.1804 23.5628Z" fill="#0683AD"/>
</svg>
