<svg width="78" height="78" viewBox="0 0 78 78" fill="none" xmlns="http://www.w3.org/2000/svg">
<path d="M38.2084 27.8093L37.4185 35.6594C37.3336 36.4734 36.4588 37.0805 35.4481 37.0184C34.5563 36.9563 33.8514 36.3837 33.775 35.6594L32.9851 27.8093C32.8662 26.6366 33.9363 25.6156 35.3802 25.519C36.824 25.4225 38.081 26.2916 38.1999 27.4643C38.2084 27.5816 38.2084 27.6989 38.1999 27.8093H38.2084Z" fill="#F4364C"/>
<path d="M35.5919 42.2546C36.4588 42.2546 37.1616 41.5518 37.1616 40.6849C37.1616 39.818 36.4588 39.1152 35.5919 39.1152C34.725 39.1152 34.0222 39.818 34.0222 40.6849C34.0222 41.5518 34.725 42.2546 35.5919 42.2546Z" fill="#F4364C"/>
<path d="M48.119 55.8328C47.9912 53.8508 48.59 51.1203 49.8011 49.5428C54.6251 43.2729 56.7647 37.8391 55.7555 31.1512C54.1138 20.3172 46.4774 14.58 35.9142 14.0339C24.3755 13.4339 14.4919 20.8633 14.8082 31.1041C14.8485 32.4591 15.084 34.448 15.0773 35.7491C15.0705 40.374 11.0808 42.2684 11 43.7449C10.8722 46.1584 13.7047 45.4033 14.7005 48.8214C15.9654 53.1564 14.1488 58.1048 20.0494 57.8014C22.4042 57.707 26.2258 56.7902 27.8674 58.3205C28.9103 59.2914 29.7513 63.5454 30.081 65.4264C30.1752 65.9455 30.6259 66.3298 31.1575 66.3298H48.8726C49.4714 66.3298 49.9625 65.8444 49.9625 65.2443C49.9625 65.1432 49.9491 65.0353 49.9222 64.9342C49.3301 62.9049 48.3142 59.0217 48.1123 55.8396L48.119 55.8328ZM35.2145 47.6753C27.6925 47.6753 21.5901 41.5605 21.5901 34.0232C21.5901 26.4859 27.6925 20.3712 35.2145 20.3712C42.7366 20.3712 48.839 26.4859 48.839 34.0232C48.839 41.5605 42.7366 47.6753 35.2145 47.6753Z" fill="#0683AD"/>
</svg>
