<svg width="78" height="78" viewBox="0 0 78 78" fill="none" xmlns="http://www.w3.org/2000/svg">
<path d="M24.3243 35.1058C28.7584 35.1058 32.353 31.4956 32.353 27.0422C32.353 22.5887 28.7584 18.9785 24.3243 18.9785C19.8901 18.9785 16.2955 22.5887 16.2955 27.0422C16.2955 31.4956 19.8901 35.1058 24.3243 35.1058Z" fill="#0683AD"/>
<path d="M54.7216 46.5058C53.7649 45.0315 51.8037 44.6077 50.3299 45.5687C46.4374 48.1054 43.5076 49.1797 41.6297 48.756C40.1618 48.4277 38.9851 47.1444 37.1785 45.0852C35.1401 42.7634 32.6085 39.8746 28.4961 38.3108C28.1989 38.1974 27.8958 38.1317 27.5928 38.1138C24.2529 37.1111 20.1643 36.8425 17.5435 39.4747C16.8303 40.1909 14.994 41.5995 14.994 47.1743V63.9999H33.2681L32.6382 49.5617C34.6706 51.8776 36.81 54.2113 40.239 54.9813C40.9641 55.1424 41.7069 55.226 42.4854 55.226C45.6767 55.226 49.3375 53.8234 53.7886 50.9226C55.2565 49.9616 55.6784 47.992 54.7216 46.5117V46.5058Z" fill="#0683AD"/>
<path d="M51.0826 16C45.0209 16 40.0884 20.954 40.0884 27.042C40.0884 33.1301 45.0209 38.0841 51.0826 38.0841C57.1442 38.0841 62.0767 33.1301 62.0767 27.042C62.0767 20.954 57.1442 16 51.0826 16ZM43.1668 27.042C43.1668 25.4066 43.66 23.8906 44.5039 22.6252L55.4446 33.6732C54.1906 34.5088 52.6931 34.9923 51.0826 34.9923C46.7146 34.9923 43.1668 31.423 43.1668 27.042ZM57.6375 31.5006L46.6789 20.4407C47.9388 19.5872 49.4542 19.0918 51.0826 19.0918C55.4505 19.0918 58.9984 22.661 58.9984 27.042C58.9984 28.6954 58.4932 30.2293 57.6315 31.5006H57.6375Z" fill="#F4364C"/>
</svg>
