<svg width="18" height="18" viewBox="0 0 18 18" fill="none" xmlns="http://www.w3.org/2000/svg">
<path fill-rule="evenodd" clip-rule="evenodd" d="M14.9546 3.4727C13.9614 2.42802 12.8927 1.72691 11.6296 1.3071C12.127 2.2676 12.6072 3.19505 13.1081 4.16225C13.675 3.95052 14.2631 3.73087 14.9546 3.4727ZM4.91181 4.15449C5.42481 3.16721 5.90155 2.2499 6.39591 1.29913C5.12941 1.7376 4.04121 2.4302 3.07053 3.47305C3.74987 3.72433 4.34067 3.94296 4.91181 4.15449ZM11.6106 16.7079C12.8702 16.2643 13.9768 15.5906 14.9361 14.5193C14.254 14.2699 13.6532 14.05 13.1078 13.8505C12.5881 14.8422 12.1065 15.7613 11.6106 16.7079ZM3.05695 14.5276C4.06491 15.5645 5.12961 16.2823 6.38861 16.6883C5.89405 15.7355 5.41731 14.817 4.9108 13.8409C4.35748 14.0457 3.75716 14.2682 3.05695 14.5276ZM8.53119 4.70381V0.895657C6.98551 1.60427 6.40483 2.93633 5.85597 4.40203C6.78634 4.50709 7.64296 4.60362 8.53119 4.70381ZM5.83649 13.5977C6.43499 15.0499 6.96622 16.4369 8.53967 17.0832V13.2937C7.63402 13.3955 6.76402 13.4935 5.83649 13.5977ZM9.47326 13.2915V17.0908C11.0501 16.4249 11.5943 15.058 12.1695 13.5996C11.2408 13.4935 10.3824 13.3954 9.47326 13.2915ZM9.47875 0.910763V4.70898C10.3885 4.60433 11.2552 4.50455 12.1742 4.39888C11.5869 2.9346 11.0417 1.57091 9.47875 0.910763ZM5.11319 9.45236C5.269 10.6055 5.41548 11.69 5.55913 12.7535C6.62423 12.632 7.57588 12.5235 8.52874 12.415V9.45236H5.11319ZM5.12088 8.53277H8.53521V5.5827C7.55176 5.47014 6.60113 5.36144 5.55406 5.24158C5.41081 6.32924 5.26798 7.41529 5.12088 8.53277ZM12.901 9.46308H9.47247V12.417C10.4652 12.5294 11.4282 12.6385 12.4674 12.7561C12.6131 11.6492 12.7547 10.5751 12.901 9.46308ZM12.9024 8.54719C12.7537 7.42443 12.6098 6.3394 12.465 5.24707C11.4092 5.36652 10.4462 5.47543 9.46983 5.58596V8.54719H12.9024ZM2.48965 13.8349C3.25307 13.5372 3.98508 13.2519 4.69461 12.9752C4.54286 11.8024 4.39151 10.6314 4.23996 9.46033H0.909719C1.01041 11.1025 1.53618 12.5469 2.48965 13.8349ZM13.7801 9.44495C13.6226 10.6622 13.4715 11.8316 13.3226 12.9846C14.0582 13.2673 14.7783 13.5439 15.5328 13.8337C16.4861 12.5329 17.0173 11.0853 17.1087 9.44495H13.7801ZM13.7787 8.54327H17.1185C16.9955 6.89848 16.4924 5.43521 15.5193 4.16684C14.7467 4.46963 14.0285 4.75093 13.3238 5.02695C13.4742 6.18865 13.6239 7.34669 13.7787 8.54327ZM0.935842 8.54585H4.27419C4.33173 7.93864 4.37104 7.35394 4.44661 6.7737C4.5238 6.18292 4.63665 5.5968 4.73066 5.02853C3.96582 4.73506 3.23421 4.45458 2.51009 4.17673C1.60019 5.26379 0.919025 7.13998 0.935842 8.54585ZM18 9.00759C17.9923 14.0103 13.9786 18.0105 8.9773 18C4.02255 17.9896 -0.00323975 13.9501 1.95638e-06 8.99197C0.00344627 4.01726 4.04828 -0.0060774 9.04031 6.89162e-06C14.0044 0.00629399 18.0075 4.03085 18 9.00759Z" fill="#0683AD"/>
</svg>
